<svg width="20" height="18" viewBox="0 0 20 18" fill="none" xmlns="http://www.w3.org/2000/svg">
<path d="M0.353381 8.64309L4.96178 10.3631L6.74551 16.0996C6.85965 16.467 7.30891 16.6028 7.60711 16.359L10.1759 14.2648C10.4452 14.0454 10.8287 14.0345 11.1101 14.2388L15.7433 17.6026C16.0623 17.8344 16.5142 17.6596 16.5942 17.2742L19.9883 0.948088C20.0756 0.527021 19.6619 0.175755 19.261 0.330821L0.347981 7.62689C-0.118752 7.80689 -0.114686 8.46769 0.353381 8.64309ZM6.45805 9.44749L15.4646 3.90035C15.6264 3.80095 15.793 4.01982 15.654 4.14875L8.22098 11.0581C7.95971 11.3013 7.79118 11.6268 7.74345 11.98L7.49025 13.8564C7.45671 14.107 7.10478 14.1318 7.03565 13.8894L6.06185 10.4677C5.95031 10.0774 6.11285 9.66055 6.45805 9.44749Z" fill="white"/>
</svg>
