<svg width="10" height="20" viewBox="0 0 10 20" fill="none" xmlns="http://www.w3.org/2000/svg">
<path d="M2.35069 3.87347C2.35069 4.37747 2.35069 6.62706 2.35069 6.62706H0.333313V9.99417H2.35069V20H6.49481V9.99445H9.27571C9.27571 9.99445 9.53615 8.37995 9.6624 6.61465C9.30045 6.61465 6.51048 6.61465 6.51048 6.61465C6.51048 6.61465 6.51048 4.65577 6.51048 4.31242C6.51048 3.96833 6.96232 3.50547 7.4089 3.50547C7.85464 3.50547 8.79542 3.50547 9.66677 3.50547C9.66677 3.04704 9.66677 1.46304 9.66677 0.000122082C8.50354 0.000122082 7.18017 0.000122082 6.59683 0.000122082C2.24825 -0.000110414 2.35069 3.37035 2.35069 3.87347Z" fill="white"/>
</svg>
